<?xml version="1.0" encoding="UTF-8"?>
<svg width="1252px" height="331px" viewBox="0 0 1252 331" version="1.1" xmlns="http://www.w3.org/2000/svg" xmlns:xlink="http://www.w3.org/1999/xlink">
    <!-- Generator: Sketch 47.1 (45422) - http://www.bohemiancoding.com/sketch -->
    <title>Group 3</title>
    <desc>Created with Sketch.</desc>
    <defs></defs>
    <g id="Page-1" stroke="none" stroke-width="1" fill="none" fill-rule="evenodd" opacity="0.25">
        <g id="Desktop-HD" transform="translate(-1.000000, -4.000000)">
            <g id="Group-3" style="mix-blend-mode: exclusion;" transform="translate(1.000000, 4.000000)">
                <g id="Group" transform="translate(347.000000, 1.000000)"></g>
                <g id="Group" transform="translate(897.000000, 28.000000)"></g>
                <g id="Group" transform="translate(130.000000, 194.000000)"></g>
                <g id="Group" transform="translate(0.000000, 118.000000)"></g>
                <g id="Group" transform="translate(575.000000, 166.000000)"></g>
                <g id="Group" transform="translate(993.000000, 211.000000)"></g>
                <g id="Group" transform="translate(185.000000, 139.000000)"></g>
                <g id="Group" transform="translate(794.000000, 34.000000)"></g>
                <g id="Group" transform="translate(228.000000, 43.000000)"></g>
                <g id="Group" transform="translate(943.000000, 117.000000)"></g>
                <g id="Group" transform="translate(1153.000000, 144.000000)"></g>
                <g id="Group" transform="translate(607.000000, 90.000000)"></g>
                <g id="Group" transform="translate(23.000000, 91.000000)"></g>
                <g id="Group" transform="translate(388.000000, 20.000000)"></g>
                <g id="Group" transform="translate(55.000000, 97.000000)"></g>
                <g id="Group" transform="translate(366.000000, 217.000000)"></g>
                <g id="Group-2">
                    <circle id="Oval" fill="#9B9B9B" opacity="0.25" cx="180" cy="110" r="25"></circle>
                    <circle id="Oval" fill="#9B9B9B" opacity="0.25" cx="760" cy="217" r="37"></circle>
                    <circle id="Oval" fill="#9B9B9B" opacity="0.25" cx="273.359728" cy="186.793657" r="25"></circle>
                    <circle id="Oval" fill="#85092A" opacity="0.25" cx="647" cy="246" r="46"></circle>
                    <circle id="Oval" fill="#85092A" opacity="0.25" cx="1002.5" cy="67.5" r="40.5"></circle>
                    <circle id="Oval" fill="#85092A" opacity="0.25" cx="1179.5" cy="75.5" r="32.5"></circle>
                    <circle id="Oval" fill="#254046" opacity="0.25" cx="271.5" cy="43.5" r="40.5"></circle>
                    <circle id="Oval" fill="#254046" opacity="0.25" cx="103.5" cy="224.5" r="40.5"></circle>
                    <circle id="Oval" fill="#254046" opacity="0.25" cx="329" cy="267" r="18"></circle>
                    <circle id="Oval" fill="#85092A" opacity="0.25" cx="1232.5" cy="179.5" r="19.5"></circle>
                    <circle id="Oval" fill="#9B9B9B" opacity="0.25" cx="1028" cy="264" r="31"></circle>
                    <circle id="Oval" fill="#9B9B9B" opacity="0.25" cx="1213" cy="165" r="31"></circle>
                    <circle id="Oval" fill="#85092A" opacity="0.25" cx="776" cy="37" r="24"></circle>
                    <polygon id="Polygon" fill="#9B9B9B" opacity="0.25" transform="translate(500.000000, 138.000000) rotate(90.000000) translate(-500.000000, -138.000000) " points="500 73 556.291651 105.5 556.291651 170.5 500 203 443.708349 170.5 443.708349 105.5"></polygon>
                    <polygon id="Polygon" fill="#9B9B9B" opacity="0.25" transform="translate(771.000000, 99.000000) rotate(90.000000) translate(-771.000000, -99.000000) " points="771 34 827.291651 66.5 827.291651 131.5 771 164 714.708349 131.5 714.708349 66.5"></polygon>
                    <polygon id="Polygon" fill="#9B9B9B" opacity="0.25" transform="translate(687.500000, 286.743902) rotate(90.000000) translate(-687.500000, -286.743902) " points="687.5 251.243902 718.243902 268.993902 718.243902 304.493902 687.5 322.243902 656.756098 304.493902 656.756098 268.993902"></polygon>
                    <polygon id="Polygon" fill="#9B9B9B" opacity="0.25" transform="translate(147.500000, 255.743902) rotate(90.000000) translate(-147.500000, -255.743902) " points="147.5 220.243902 178.243902 237.993902 178.243902 273.493902 147.5 291.243902 116.756098 273.493902 116.756098 237.993902"></polygon>
                    <polygon id="Polygon" fill="#85092A" opacity="0.25" transform="translate(597.000000, 82.000000) rotate(90.000000) translate(-597.000000, -82.000000) " points="597 17 653.291651 49.5 653.291651 114.5 597 147 540.708349 114.5 540.708349 49.5"></polygon>
                    <polygon id="Polygon" fill="#85092A" opacity="0.25" transform="translate(335.859728, 188.188194) rotate(90.000000) translate(-335.859728, -188.188194) " points="335.859728 127.688194 388.254265 157.938194 388.254265 218.438194 335.859728 248.688194 283.465191 218.438194 283.465191 157.938194"></polygon>
                    <polygon id="Polygon" fill="#85092A" opacity="0.25" transform="translate(433.748711, 49.000000) rotate(90.000000) translate(-433.748711, -49.000000) " points="433.748711 24.7512887 454.748711 36.8756443 454.748711 61.1243557 433.748711 73.2487113 412.748711 61.1243557 412.748711 36.8756443"></polygon>
                    <polygon id="Polygon" fill="#254046" opacity="0.25" transform="translate(532.000000, 82.000000) rotate(90.000000) translate(-532.000000, -82.000000) " points="532 17 588.291651 49.5 588.291651 114.5 532 147 475.708349 114.5 475.708349 49.5"></polygon>
                    <polygon id="Polygon" fill="#254046" opacity="0.25" transform="translate(1058.000000, 99.000000) rotate(90.000000) translate(-1058.000000, -99.000000) " points="1058 34 1114.29165 66.5 1114.29165 131.5 1058 164 1001.70835 131.5 1001.70835 66.5"></polygon>
                    <polygon id="Polygon" fill="#254046" opacity="0.25" transform="translate(483.500000, 289.500000) rotate(90.000000) translate(-483.500000, -289.500000) " points="483.5 250 517.708003 269.75 517.708003 309.25 483.5 329 449.291997 309.25 449.291997 269.75"></polygon>
                    <polygon id="Polygon" fill="#9B9B9B" opacity="0.25" transform="translate(1047.000000, 172.000000) rotate(90.000000) translate(-1047.000000, -172.000000) " points="1047 118 1093.76537 145 1093.76537 199 1047 226 1000.23463 199 1000.23463 145"></polygon>
                    <polygon id="Polygon" fill="#9B9B9B" opacity="0.25" transform="translate(236.196152, 260.676915) rotate(90.000000) translate(-236.196152, -260.676915) " points="236.196152 219.480762 271.873067 240.078838 271.873067 281.274991 236.196152 301.873067 200.519238 281.274991 200.519238 240.078838"></polygon>
                    <polygon id="Polygon" fill="#85092A" opacity="0.25" transform="translate(1101.000000, 159.000000) rotate(90.000000) translate(-1101.000000, -159.000000) " points="1101 105 1147.76537 132 1147.76537 186 1101 213 1054.23463 186 1054.23463 132"></polygon>
                    <polygon id="Polygon" fill="#254046" opacity="0.25" transform="translate(845.105118, 279.186533) rotate(90.000000) translate(-845.105118, -279.186533) " points="845.105118 220.081416 896.291651 249.633975 896.291651 308.739092 845.105118 338.291651 793.918584 308.739092 793.918584 249.633975"></polygon>
                    <polygon id="Polygon" fill="#254046" opacity="0.25" transform="translate(896.500000, 32.500000) rotate(90.000000) translate(-896.500000, -32.500000) " points="896.5 -4 928.109927 14.25 928.109927 50.75 896.5 69 864.890073 50.75 864.890073 14.25"></polygon>
                    <polygon id="Polygon" fill="#254046" opacity="0.25" transform="translate(146.000000, 80.000000) rotate(90.000000) translate(-146.000000, -80.000000) " points="146 26 192.765372 53 192.765372 107 146 134 99.2346282 107 99.2346282 53"></polygon>
                    <polygon id="Polygon" fill="#254046" opacity="0.25" transform="translate(365.740926, 143.693004) rotate(90.000000) translate(-365.740926, -143.693004) " points="365.740926 95.3118058 407.640272 119.502405 407.640272 167.883603 365.740926 192.074202 323.841579 167.883603 323.841579 119.502405"></polygon>
                    <polygon id="Triangle" fill="#9B9B9B" opacity="0.245131341" transform="translate(680.500000, 222.500000) rotate(180.000000) translate(-680.500000, -222.500000) " points="680.5 204 699 241 662 241"></polygon>
                    <polygon id="Triangle" fill="#9B9B9B" opacity="0.245131341" transform="translate(893.500000, 157.500000) rotate(180.000000) translate(-893.500000, -157.500000) " points="893.5 137 914 178 873 178"></polygon>
                    <polygon id="Triangle" fill="#9B9B9B" opacity="0.245131341" transform="translate(1146.500000, 89.500000) rotate(180.000000) translate(-1146.500000, -89.500000) " points="1146.5 71 1165 108 1128 108"></polygon>
                    <polygon id="Triangle" fill="#85092A" opacity="0.245131341" points="105 79 140 149 70 149"></polygon>
                    <polygon id="Triangle" fill="#254046" opacity="0.245131341" points="651 146.5 750 97 750 196"></polygon>
                    <polygon id="Triangle" fill="#254046" opacity="0.245131341" transform="translate(1212.000000, 106.000000) scale(1, -1) rotate(90.000000) translate(-1212.000000, -106.000000) " points="1212 82 1236 130 1188 130"></polygon>
                    <polygon id="Triangle" fill="#254046" opacity="0.245131341" transform="translate(596.500000, 275.500000) scale(-1, -1) rotate(90.000000) translate(-596.500000, -275.500000) " points="596.5 240 632 311 561 311"></polygon>
                    <polygon id="Triangle" fill="#85092A" opacity="0.245131341" points="358.5 1 370 24 347 24"></polygon>
                    <polygon id="Triangle" fill="#85092A" opacity="0.245131341" transform="translate(358.500000, 35.500000) scale(1, -1) translate(-358.500000, -35.500000) " points="358.5 24 370 47 347 47"></polygon>
                    <polygon id="Triangle" fill="#85092A" opacity="0.245131341" points="920 28 943 73.5 897 73.5"></polygon>
                    <polygon id="Triangle" fill="#85092A" opacity="0.245131341" transform="translate(920.000000, 96.250000) scale(1, -1) translate(-920.000000, -96.250000) " points="920 73.5 943 119 897 119"></polygon>
                    <polygon id="Triangle" fill="#85092A" opacity="0.245131341" points="141.5 194 153 217 130 217"></polygon>
                    <polygon id="Triangle" fill="#85092A" opacity="0.245131341" transform="translate(141.500000, 228.500000) scale(1, -1) translate(-141.500000, -228.500000) " points="141.5 217 153 240 130 240"></polygon>
                    <polygon id="Triangle" fill="#85092A" opacity="0.245131341" points="11.5 118 23 141 0 141"></polygon>
                    <polygon id="Triangle" fill="#85092A" opacity="0.245131341" transform="translate(11.500000, 152.500000) scale(1, -1) translate(-11.500000, -152.500000) " points="11.5 141 23 164 0 164"></polygon>
                    <polygon id="Triangle" fill="#85092A" opacity="0.245131341" points="590 166 605 196 575 196"></polygon>
                    <polygon id="Triangle" fill="#85092A" opacity="0.245131341" transform="translate(590.000000, 211.000000) scale(1, -1) translate(-590.000000, -211.000000) " points="590 196 605 226 575 226"></polygon>
                    <polygon id="Triangle" fill="#85092A" opacity="0.245131341" points="1010.5 211 1028 246 993 246"></polygon>
                    <polygon id="Triangle" fill="#85092A" opacity="0.245131341" transform="translate(1010.500000, 263.500000) scale(1, -1) translate(-1010.500000, -263.500000) " points="1010.5 246 1028 281 993 281"></polygon>
                    <polygon id="Triangle" fill="#85092A" opacity="0.245131341" points="719 49 737 85 701 85"></polygon>
                    <polygon id="Triangle" fill="#85092A" opacity="0.245131341" transform="translate(295.000000, 67.000000) scale(-1, 1) rotate(90.000000) translate(-295.000000, -67.000000) " points="295 44 318 90 272 90"></polygon>
                    <polygon id="Triangle" fill="#85092A" opacity="0.245131341" points="786 217 821 287 751 287"></polygon>
                    <polygon id="Triangle" fill="#85092A" opacity="0.245131341" points="518.5 210 561 295 476 295"></polygon>
                    <polygon id="Triangle" fill="#85092A" opacity="0.245131341" points="213.5 139 242 196 185 196"></polygon>
                    <polygon id="Triangle" fill="#85092A" opacity="0.245131341" transform="translate(213.500000, 224.500000) scale(1, -1) translate(-213.500000, -224.500000) " points="213.5 196 242 253 185 253"></polygon>
                    <polygon id="Triangle" fill="#254046" opacity="0.245131341" points="831.5 34 869 109 794 109"></polygon>
                    <polygon id="Triangle" fill="#254046" opacity="0.245131341" transform="translate(831.500000, 146.500000) scale(1, -1) translate(-831.500000, -146.500000) " points="831.5 109 869 184 794 184"></polygon>
                    <polygon id="Triangle" fill="#9B9B9B" opacity="0.245131341" points="246.5 43 265 80 228 80"></polygon>
                    <polygon id="Triangle" fill="#9B9B9B" opacity="0.245131341" points="246.5 117 265 80 228 80"></polygon>
                    <polygon id="Triangle" fill="#9B9B9B" opacity="0.245131341" points="961.5 117 980 154 943 154"></polygon>
                    <polygon id="Triangle" fill="#9B9B9B" opacity="0.245131341" points="961.5 191 980 154 943 154"></polygon>
                    <polygon id="Triangle" fill="#254046" opacity="0.245131341" points="1181.5 144 1210 201 1153 201"></polygon>
                    <polygon id="Triangle" fill="#254046" opacity="0.245131341" transform="translate(1181.500000, 229.500000) scale(1, -1) translate(-1181.500000, -229.500000) " points="1181.5 201 1210 258 1153 258"></polygon>
                    <polygon id="Triangle" fill="#9B9B9B" opacity="0.245131341" points="629 90 651 134 607 134"></polygon>
                    <polygon id="Triangle" fill="#9B9B9B" opacity="0.245131341" points="629 178 651 134 607 134"></polygon>
                    <polygon id="Triangle" fill="#254046" opacity="0.245131341" points="35.5 91 48 116 23 116"></polygon>
                    <polygon id="Triangle" fill="#254046" opacity="0.245131341" points="35.5 141 48 116 23 116"></polygon>
                    <polygon id="Triangle" fill="#9B9B9B" opacity="0.245131341" points="408.5 20 429 60 388 60"></polygon>
                    <polygon id="Triangle" fill="#9B9B9B" opacity="0.245131341" points="408.5 100 429 60 388 60"></polygon>
                    <polygon id="Triangle" fill="#9B9B9B" opacity="0.245131341" points="76.5 97 98 140 55 140"></polygon>
                    <polygon id="Triangle" fill="#9B9B9B" opacity="0.245131341" points="76.5 183 98 140 55 140"></polygon>
                    <polygon id="Triangle" fill="#9B9B9B" opacity="0.245131341" points="394 217 422 273 366 273"></polygon>
                    <polygon id="Triangle" fill="#9B9B9B" opacity="0.245131341" points="394 329 422 273 366 273"></polygon>
                    <circle id="Oval" fill="#85092A" opacity="0.25" cx="197.5" cy="80.5" r="17.5"></circle>
                    <circle id="Oval" fill="#85092A" opacity="0.25" cx="553" cy="315" r="12"></circle>
                    <circle id="Oval" fill="#85092A" opacity="0.25" cx="1106" cy="281" r="12"></circle>
                    <circle id="Oval" fill="#85092A" opacity="0.25" cx="994.5" cy="184.5" r="16.5"></circle>
                    <circle id="Oval" fill="#85092A" opacity="0.25" cx="865" cy="45" r="12"></circle>
                    <circle id="Oval" fill="#85092A" opacity="0.25" cx="705.5" cy="175.5" r="17.5"></circle>
                    <polygon id="Polygon" fill="#85092A" opacity="0.25" transform="translate(59.500000, 211.052559) rotate(90.000000) translate(-59.500000, -211.052559) " points="59.5 189.052559 78.5525589 200.052559 78.5525589 222.052559 59.5 233.052559 40.4474411 222.052559 40.4474411 200.052559"></polygon>
                    <polygon id="Polygon" fill="#85092A" opacity="0.25" transform="translate(885.500000, 217.609927) rotate(90.000000) translate(-885.500000, -217.609927) " points="885.5 154.109927 940.492613 185.859927 940.492613 249.359927 885.5 281.109927 830.507387 249.359927 830.507387 185.859927"></polygon>
                    <polygon id="Polygon" fill="#9B9B9B" opacity="0.25" transform="translate(926.911543, 270.358639) rotate(90.000000) translate(-926.911543, -270.358639) " points="926.911543 221.447096 969.270181 245.902867 969.270181 294.81441 926.911543 319.270181 884.552904 294.81441 884.552904 245.902867"></polygon>
                    <polygon id="Polygon" fill="#85092A" opacity="0.25" transform="translate(355.411543, 277.801270) rotate(90.000000) translate(-355.411543, -277.801270) " points="355.411543 243.389727 385.212813 260.595499 385.212813 295.007042 355.411543 312.212813 325.610273 295.007042 325.610273 260.595499"></polygon>
                    <polygon id="Triangle" fill="#254046" opacity="0.245131341" transform="translate(445.000000, 238.000000) scale(-1, 1) rotate(180.000000) translate(-445.000000, -238.000000) " points="445 207 476 269 414 269"></polygon>
                    <polygon id="Triangle" fill="#254046" opacity="0.245131341" transform="translate(565.000000, 33.000000) scale(-1, 1) rotate(180.000000) translate(-565.000000, -33.000000) " points="565 2 596 64 534 64"></polygon>
                    <polygon id="Polygon" fill="#9B9B9B" opacity="0.25" transform="translate(1141.500000, 217.743902) rotate(90.000000) translate(-1141.500000, -217.743902) " points="1141.5 182.243902 1172.2439 199.993902 1172.2439 235.493902 1141.5 253.243902 1110.7561 235.493902 1110.7561 199.993902"></polygon>
                </g>
            </g>
        </g>
    </g>
</svg>