<?xml version="1.0" encoding="UTF-8"?>
<svg width="1232px" height="115px" viewBox="0 0 632 115" version="1.1" xmlns="http://www.w3.org/2000/svg" xmlns:xlink="http://www.w3.org/1999/xlink">
    <!-- Generator: Sketch 51.3 (57544) - http://www.bohemiancoding.com/sketch -->
    <title>quotes</title>
    <desc>Created with Sketch.</desc>
    <defs></defs>
    <g id="quotes" transform="scale(.5)" stroke="none" stroke-width="1" fill="none" fill-rule="evenodd">
        <path d="M1089.25,66.15 C1079.34995,59.549967 1074.4,50.3250592 1074.4,38.475 C1074.4,26.6249407 1077.92496,17.2500345 1084.975,10.35 C1092.02504,3.4499655 1100.87495,0 1111.525,0 C1122.17505,0 1131.02496,3.299967 1138.075,9.9 C1145.12504,16.500033 1148.65,25.0499475 1148.65,35.55 C1148.65,46.0500525 1145.35003,56.399949 1138.75,66.6 L1105.9,114.3 L1069,114.3 L1089.25,66.15 Z" id="Path" fill="#85092A"></path>
        <path d="M1172.25,66.15 C1162.34995,59.549967 1157.4,50.3250592 1157.4,38.475 C1157.4,26.6249407 1160.92496,17.2500345 1167.975,10.35 C1175.02504,3.4499655 1183.87495,0 1194.525,0 C1205.17505,0 1214.02496,3.299967 1221.075,9.9 C1228.12504,16.500033 1231.65,25.0499475 1231.65,35.55 C1231.65,46.0500525 1228.35003,56.399949 1221.75,66.6 L1188.9,114.3 L1152,114.3 L1172.25,66.15 Z" id="Path" fill="#85092A"></path>
        <path d="M59.4,48.15 C69.3000495,54.750033 74.25,63.9749407 74.25,75.825 C74.25,87.6750592 70.7250353,97.0499655 63.675,103.95 C56.6249648,110.850035 47.7750533,114.3 37.125,114.3 C26.4749468,114.3 17.6250352,111.000033 10.575,104.4 C3.52496475,97.799967 0,89.2500525 0,78.75 C0,68.2499475 3.299967,57.900051 9.9,47.7 L42.75,0 L79.65,0 L59.4,48.15 Z" id="Path" fill="#85092A"></path>
        <path d="M143.4,48.15 C153.30005,54.750033 158.25,63.9749407 158.25,75.825 C158.25,87.6750592 154.725035,97.0499655 147.675,103.95 C140.624965,110.850035 131.775053,114.3 121.125,114.3 C110.474947,114.3 101.625035,111.000033 94.575,104.4 C87.5249648,97.799967 84,89.2500525 84,78.75 C84,68.2499475 87.299967,57.900051 93.9,47.7 L126.75,0 L163.65,0 L143.4,48.15 Z" id="Path" fill="#85092A"></path>
    </g>
</svg>